<svg version="1.2" xmlns="http://www.w3.org/2000/svg" viewBox="0 0 3474 794" width="3474" height="794" xmlns:c2pa="http://c2pa.org/manifest"><metadata><c2pa:manifest>AAAWgmp1bWIAAAAeanVtZGMycGEAEQAQgAAAqgA4m3EDYzJwYQAAABZcanVtYgAAAEdqdW1kYzJtYQARABCAAACqADibcQN1cm46YzJwYTpkYTIyZmQ5OC1jOWRkLTRlZDEtYmI5ZS1hYTJhZTNiZGMxMTMAAAADl2p1bWIAAAApanVtZGMyYXMAEQAQgAAAqgA4m3EDYzJwYS5hc3NlcnRpb25zAAAAALxqdW1iAAAARGp1bWRjYm9yABEAEIAAAKoAOJtxE2MycGEuaW5ncmVkaWVudC52MwAAAAAYYzJzaN7aTkCNfDodXul92OAW5BsAAABwY2JvcqNpZGM6Zm9ybWF0bWltYWdlL3N2Zyt4bWxqaW5zdGFuY2VJRHgseG1wOmlpZDpmYzcyN2M5OS1lZmY1LTRjYTItOThkZC1hODFlZDk5NjVjNDNscmVsYXRpb25zaGlwaHBhcmVudE9mAAAB4mp1bWIAAABBanVtZGNib3IAEQAQgAAAqgA4m3ETYzJwYS5hY3Rpb25zLnYyAAAAABhjMnNoqeBGivKjheL3kr/qx9RteQAAAZljYm9yomdhY3Rpb25zgqJmYWN0aW9ua2MycGEub3BlbmVkanBhcmFtZXRlcnOha2luZ3JlZGllbnRzgaJjdXJseC1zZWxmI2p1bWJmPWMycGEuYXNzZXJ0aW9ucy9jMnBhLmluZ3JlZGllbnQudjNkaGFzaFgg4bwoXb7qEBpn+mU7uYXxYj7vICpSJT9e7EsXlO81urOkZmFjdGlvbngdY29tLmFudGhyb3BpYy5jbGF1ZGUucHJvdmlkZWRqcGFyYW1ldGVyc6F4H2NvbS5hbnRocm9waWMub3JpZ2luLWNvbmZpZGVuY2VndW5rbm93bmtkZXNjcmlwdGlvbnhmQ2xhdWRlIHByb3ZpZGVkIHRoaXMgZmlsZSBhdCB0aGUgcmVxdWVzdCBvZiBhIHVzZXIgYW5kIG1heSBoYXZlIGNyZWF0ZWQgb3IgbW9kaWZpZWQgdGhlIGZpbGUgY29udGVudHMubXNvZnR3YXJlQWdlbnShZG5hbWVmQ2xhdWRlcmFsbEFjdGlvbnNJbmNsdWRlZPUAAADIanVtYgAAAEBqdW1kY2JvcgARABCAAACqADibcRNjMnBhLmhhc2guZGF0YQAAAAAYYzJzaJVCzSjnHfVue+Ph8WaGYZQAAACAY2JvcqVjYWxnZnNoYTI1NmNwYWRNAAAAAAAAAAAAAAAAAGRoYXNoWCBiiItXb0CNDuUu9yZaABHMWrY2UxJXojPJkBBM4AUazWRuYW1lbmp1bWJmIG1hbmlmZXN0amV4Y2x1c2lvbnOBomVzdGFydBimZmxlbmd0aBkeBAAAAj5qdW1iAAAAJ2p1bWRjMmNsABEAEIAAAKoAOJtxA2MycGEuY2xhaW0udjIAAAACD2Nib3KlY2FsZ2ZzaGEyNTZpc2lnbmF0dXJleE1zZWxmI2p1bWJmPS9jMnBhL3VybjpjMnBhOmRhMjJmZDk4LWM5ZGQtNGVkMS1iYjllLWFhMmFlM2JkYzExMy9jMnBhLnNpZ25hdHVyZWppbnN0YW5jZUlEeCx4bXA6aWlkOjM3Y2E5NmQ3LTQ2YzQtNDVjMy05OWMxLTk1YzEwYzFhN2UyMHJjcmVhdGVkX2Fzc2VydGlvbnODomN1cmx4LXNlbGYjanVtYmY9YzJwYS5hc3NlcnRpb25zL2MycGEuaW5ncmVkaWVudC52M2RoYXNoWCDhvChdvuoQGmf6ZTu5hfFiPu8gKlIlP17sSxeU7zW6s6JjdXJseCpzZWxmI2p1bWJmPWMycGEuYXNzZXJ0aW9ucy9jMnBhLmFjdGlvbnMudjJkaGFzaFggUrLVw1+Pw5T2DUA4STwjWtSsMai088oxPTAs5eZcNfqiY3VybHgpc2VsZiNqdW1iZj1jMnBhLmFzc2VydGlvbnMvYzJwYS5oYXNoLmRhdGFkaGFzaFggO0tJaEc3yhqrT3B4u1FZzMWL+woTDqOBETCvKLTg2Xl0Y2xhaW1fZ2VuZXJhdG9yX2luZm+jZG5hbWVvQW50aHJvcGljIEZpbGVzZ3ZlcnNpb25lMS4wLjBrc3BlY1ZlcnNpb25lMi40LjAAABA4anVtYgAAAChqdW1kYzJjcwARABCAAACqADibcQNjMnBhLnNpZ25hdHVyZQAAABAIY2JvctKEWQISogEmGCFZAgowggIGMIIBjaADAgECAhRA5aAK7sI50L64g/oGQgU9Z1UTADAKBggqhkjOPQQDAzBJMRcwFQYDVQQKEw5BbnRocm9waWMsIFBCQzEuMCwGA1UEAxMlQW50aHJvcGljIENvbnRlbnQgQ3JlZGVudGlhbHMgUm9vdCBDQTAeFw0yNjA4MDcxODQzNTZaFw0yODA4MDYxOTQzNTZaMEQxFzAVBgNVBAoTDkFudGhyb3BpYywgUEJDMSkwJwYDVQQDEyBBbnRocm9waWMgQ2xhdWRlIENvbnRlbnQgU2lnbmluZzBZMBMGByqGSM49AgEGCCqGSM49AwEHA0IABJh6CmvLUBgFFNU0vUKlOVtE6djd17L5SuwX0LemFisBM3dkd/3cyjxFA3Qo5S46fX0/ihY0VZ7mfb9KF703t5OjWDBWMA4GA1UdDwEB/wQEAwIHgDAVBgNVHSUEDjAMBgorBgEEAYPoXgIBMAwGA1UdEwEB/wQCMAAwHwYDVR0jBBgwFoAUzlHiBIFOZFsj+OPEz5o+nMHXXMIwCgYIKoZIzj0EAwMDZwAwZAIwMXMdFJ4BetLLVY7ORuE9noqbbAZOZn/aArXyTwFAZfKrPzxF2vPoJNf1+UCdg1XGAjBwX1zd9WGqYkqmL5SFqw1QySjr1zJfpJM9+1rdDwSPLMOPOjKuiXjoU/pUUeG9RwmhY3BhZFkNngAAAAAAAAAAAAAAAAAAAAAAAAAAAAAAAAAAAAAAAAAAAAAAAAAAAAAAAAAAAAAAAAAAAAAAAAAAAAAAAAAAAAAAAAAAAAAAAAAAAAAAAAAAAAAAAAAAAAAAAAAAAAAAAAAAAAAAAAAAAAAAAAAAAAAAAAAAAAAAAAAAAAAAAAAAAAAAAAAAAAAAAAAAAAAAAAAAAAAAAAAAAAAAAAAAAAAAAAAAAAAAAAAAAAAAAAAAAAAAAAAAAAAAAAAAAAAAAAAAAAAAAAAAAAAAAAAAAAAAAAAAAAAAAAAAAAAAAAAAAAAAAAAAAAAAAAAAAAAAAAAAAAAAAAAAAAAAAAAAAAAAAAAAAAAAAAAAAAAAAAAAAAAAAAAAAAAAAAAAAAAAAAAAAAAAAAAAAAAAAAAAAAAAAAAAAAAAAAAAAAAAAAAAAAAAAAAAAAAAAAAAAAAAAAAAAAAAAAAAAAAAAAAAAAAAAAAAAAAAAAAAAAAAAAAAAAAAAAAAAAAAAAAAAAAAAAAAAAAAAAAAAAAAAAAAAAAAAAAAAAAAAAAAAAAAAAAAAAAAAAAAAAAAAAAAAAAAAAAAAAAAAAAAAAAAAAAAAAAAAAAAAAAAAAAAAAAAAAAAAAAAAAAAAAAAAAAAAAAAAAAAAAAAAAAAAAAAAAAAAAAAAAAAAAAAAAAAAAAAAAAAAAAAAAAAAAAAAAAAAAAAAAAAAAAAAAAAAAAAAAAAAAAAAAAAAAAAAAAAAAAAAAAAAAAAAAAAAAAAAAAAAAAAAAAAAAAAAAAAAAAAAAAAAAAAAAAAAAAAAAAAAAAAAAAAAAAAAAAAAAAAAAAAAAAAAAAAAAAAAAAAAAAAAAAAAAAAAAAAAAAAAAAAAAAAAAAAAAAAAAAAAAAAAAAAAAAAAAAAAAAAAAAAAAAAAAAAAAAAAAAAAAAAAAAAAAAAAAAAAAAAAAAAAAAAAAAAAAAAAAAAAAAAAAAAAAAAAAAAAAAAAAAAAAAAAAAAAAAAAAAAAAAAAAAAAAAAAAAAAAAAAAAAAAAAAAAAAAAAAAAAAAAAAAAAAAAAAAAAAAAAAAAAAAAAAAAAAAAAAAAAAAAAAAAAAAAAAAAAAAAAAAAAAAAAAAAAAAAAAAAAAAAAAAAAAAAAAAAAAAAAAAAAAAAAAAAAAAAAAAAAAAAAAAAAAAAAAAAAAAAAAAAAAAAAAAAAAAAAAAAAAAAAAAAAAAAAAAAAAAAAAAAAAAAAAAAAAAAAAAAAAAAAAAAAAAAAAAAAAAAAAAAAAAAAAAAAAAAAAAAAAAAAAAAAAAAAAAAAAAAAAAAAAAAAAAAAAAAAAAAAAAAAAAAAAAAAAAAAAAAAAAAAAAAAAAAAAAAAAAAAAAAAAAAAAAAAAAAAAAAAAAAAAAAAAAAAAAAAAAAAAAAAAAAAAAAAAAAAAAAAAAAAAAAAAAAAAAAAAAAAAAAAAAAAAAAAAAAAAAAAAAAAAAAAAAAAAAAAAAAAAAAAAAAAAAAAAAAAAAAAAAAAAAAAAAAAAAAAAAAAAAAAAAAAAAAAAAAAAAAAAAAAAAAAAAAAAAAAAAAAAAAAAAAAAAAAAAAAAAAAAAAAAAAAAAAAAAAAAAAAAAAAAAAAAAAAAAAAAAAAAAAAAAAAAAAAAAAAAAAAAAAAAAAAAAAAAAAAAAAAAAAAAAAAAAAAAAAAAAAAAAAAAAAAAAAAAAAAAAAAAAAAAAAAAAAAAAAAAAAAAAAAAAAAAAAAAAAAAAAAAAAAAAAAAAAAAAAAAAAAAAAAAAAAAAAAAAAAAAAAAAAAAAAAAAAAAAAAAAAAAAAAAAAAAAAAAAAAAAAAAAAAAAAAAAAAAAAAAAAAAAAAAAAAAAAAAAAAAAAAAAAAAAAAAAAAAAAAAAAAAAAAAAAAAAAAAAAAAAAAAAAAAAAAAAAAAAAAAAAAAAAAAAAAAAAAAAAAAAAAAAAAAAAAAAAAAAAAAAAAAAAAAAAAAAAAAAAAAAAAAAAAAAAAAAAAAAAAAAAAAAAAAAAAAAAAAAAAAAAAAAAAAAAAAAAAAAAAAAAAAAAAAAAAAAAAAAAAAAAAAAAAAAAAAAAAAAAAAAAAAAAAAAAAAAAAAAAAAAAAAAAAAAAAAAAAAAAAAAAAAAAAAAAAAAAAAAAAAAAAAAAAAAAAAAAAAAAAAAAAAAAAAAAAAAAAAAAAAAAAAAAAAAAAAAAAAAAAAAAAAAAAAAAAAAAAAAAAAAAAAAAAAAAAAAAAAAAAAAAAAAAAAAAAAAAAAAAAAAAAAAAAAAAAAAAAAAAAAAAAAAAAAAAAAAAAAAAAAAAAAAAAAAAAAAAAAAAAAAAAAAAAAAAAAAAAAAAAAAAAAAAAAAAAAAAAAAAAAAAAAAAAAAAAAAAAAAAAAAAAAAAAAAAAAAAAAAAAAAAAAAAAAAAAAAAAAAAAAAAAAAAAAAAAAAAAAAAAAAAAAAAAAAAAAAAAAAAAAAAAAAAAAAAAAAAAAAAAAAAAAAAAAAAAAAAAAAAAAAAAAAAAAAAAAAAAAAAAAAAAAAAAAAAAAAAAAAAAAAAAAAAAAAAAAAAAAAAAAAAAAAAAAAAAAAAAAAAAAAAAAAAAAAAAAAAAAAAAAAAAAAAAAAAAAAAAAAAAAAAAAAAAAAAAAAAAAAAAAAAAAAAAAAAAAAAAAAAAAAAAAAAAAAAAAAAAAAAAAAAAAAAAAAAAAAAAAAAAAAAAAAAAAAAAAAAAAAAAAAAAAAAAAAAAAAAAAAAAAAAAAAAAAAAAAAAAAAAAAAAAAAAAAAAAAAAAAAAAAAAAAAAAAAAAAAAAAAAAAAAAAAAAAAAAAAAAAAAAAAAAAAAAAAAAAAAAAAAAAAAAAAAAAAAAAAAAAAAAAAAAAAAAAAAAAAAAAAAAAAAAAAAAAAAAAAAAAAAAAAAAAAAAAAAAAAAAAAAAAAAAAAAAAAAAAAAAAAAAAAAAAAAAAAAAAAAAAAAAAAAAAAAAAAAAAAAAAAAAAAAAAAAAAAAAAAAAAAAAAAAAAAAAAAAAAAAAAAAAAAAAAAAAAAAAAAAAAAAAAAAAAAAAAAAAAAAAAAAAAAAAAAAAAAAAAAAAAAAAAAAAAAAAAAAAAAAAAAAAAAAAAAAAAAAAAAAAAAAAAAAAAAAAAAAAAAAAAAAAAAAAAAAAAAAAAAAAAAAAAAAAAAAAAAAAAAAAAAAAAAAAAAAAAAAAAAAAAAAAAAAAAAAAAAAAAAAAAAAAAAAAAAAAAAAAAAAAAAAAAAAAAAAAAAAAAAAAAAAAAAAAAAAAAAAAAAAAAAAAAAAAAAAAAAAAAAAAAAAAAAAAAAAAAAAAAAAAAAAAAAAAAAAAAAAAAAAAAAAAAAAAAAAAAAAAAAAAAAAAAAAAAAAAAAAAAAAAAAAAAAAAAAAAAAAAAAAAAAAAAAAAAAAAAAAAAAAAAAAAAAAAAAAAAAAAAAAAAAAAAAAAAAAAAAAAAAAAAAAAAAAAAAAAAAAAAAAAAAAAAAAAAAAAAAAAAAAAAAAAAAAAAAAAAAAAAAAAAAAAAAAAAAAAAAAAAAAAAAAAAAAAAAAAAAAAAAAAAAAAAAAAAAAAAAAAAAAAAAAAAAAAAAAAAAAAAAAAAAAAAAAAAAAAAAAAAAAAAAAAAAAAAAAAAAAAAAAAAAAAAAAAAAAAAAAAAAAAAAAAAAAAAAAAAAAAAAAAAAAAAAAAAAAAAAAAAAAAAAAAAAAAAAAAAAAAAAAAAAAAAAAAAAAAAAAAAAAAAAAAAAAAAAAAAAAAAAAAAAAAAAAAAAAAAAAAAAAAAAAAAAAAAAAAAAAAAAAAAAAAAAAAAAAAAAAAAAAAAAAAAAAAAAAAAAAAAAAAAAAAAAAAAAAAAAAAAAAAAAAAAAAAAAAAAAAAAAAAAAAAAAAAAAAAAAAAAAAAAAAAAAAAAAAAAAAAAAAAAAAAAAAAAAAAAAAAAAAAAAAAAAAAAAAAAAAAAAAAAAAAAAAAAAAAAAAAAAAAAAAAAAAAAAAAAAAAAAAAAAAAAAAAAAAAAAAAAAAAAAAAAAAAAAAAAAAAAAAAAAAAAAAAAAAAAAAAAAAAAAAAAAAAAAAAAAAAAAAAAAAAAAAAAAAAAAAAAAAAAAAAAAAAAAAAAAAAAAAAAAAAAAAAAAAAAAAAAAAAAAAAAAAAAAAAAAAAAAAAAAAAAAAAAAAAAAAAAAAAAAAAAAAAAAAAAAAAAAAAAAAAAAAAAAAAAAAAAAAAAAAAAAAAAAAAAAAAAAAAAAAAAAAAAAAAAAAAAAAAAAAAAAAAAAAAAAAAAAAAAAAAAAAAAAAAAAAAAAAAAAAAAAAAAAAAAAAAAAAAAAAAAAAAAAAAAAAAAAAAAAAAAAAAAAAAAAAAAAAAAAAAAAAAAAAAAAAAAAAAAAAAAAAAAAAAAAAAAAAAAAAAAAAAAAAAAAAAAAAAAAAAAAAAAAAAAAAAAAAAAAAAAAAAAAAAAAAAAAAAAAAAAAAAAAAAAAAAAAAAAAAAAAAAAAAAAAAAAAAAAAAAAAAAAAAAAAAAAAAAAAAAAAAAAAAAAAAAAAAAAAAAAAAAAAAAAAAAAAAAAAAAAAAAAAAAAAAAAAAAAAAAAAAAAAAAAAAAAAAAAAAAAAAAAAAAAAAAAAAAAAAAAAAAAAAAAAAAAAAAAAAAAAAAAAAAAPZYQCN2zEz7bihbkI/yyvzWWwh93hHfdN0rChy4TESMpKyphVMz38i2mrY8EeCx9EGQQHJvaPj6rbRAM9C7Td3KSSI=</c2pa:manifest></metadata>
	<defs>
		<linearGradient id="g1" x2="1" gradientUnits="userSpaceOnUse" gradientTransform="matrix(786.007,-673.239,304.304,355.275,192.19,496.612)">
			<stop offset="0" stop-color="#633bfe"/>
			<stop offset=".27" stop-color="#a847fb"/>
			<stop offset=".65" stop-color="#f37bf3"/>
			<stop offset="1" stop-color="#fef5fe"/>
		</linearGradient>
		<linearGradient id="g2" x2="1" gradientUnits="userSpaceOnUse" gradientTransform="matrix(-988.922,751.148,-70.202,-92.425,1003.089,56.492)">
			<stop offset="0" stop-color="#fdfdfe"/>
			<stop offset=".06" stop-color="#fdfdfe"/>
			<stop offset=".42" stop-color="#8445f8"/>
			<stop offset=".78" stop-color="#491ff4"/>
			<stop offset="1" stop-color="#0d2ed5"/>
		</linearGradient>
		<linearGradient id="g3" x2="1" gradientUnits="userSpaceOnUse" gradientTransform="matrix(-797.471,582.095,-31.383,-42.994,978.582,135.341)">
			<stop offset="0" stop-color="#ffffff"/>
			<stop offset=".05" stop-color="#ffffff"/>
			<stop offset=".42" stop-color="#8445f8"/>
			<stop offset=".78" stop-color="#6a77fc"/>
			<stop offset="1" stop-color="#0d2ed5"/>
		</linearGradient>
		<linearGradient id="g4" x2="1" gradientUnits="userSpaceOnUse" gradientTransform="matrix(0,267.764,-455.146,0,749.875,420.901)">
			<stop offset="0" stop-color="#fcf9fe"/>
			<stop offset=".15" stop-color="#6dc7fa"/>
			<stop offset=".99" stop-color="#02a1f7"/>
			<stop offset="1" stop-color="#02a1f7"/>
		</linearGradient>
		<linearGradient id="g5" x2="1" gradientUnits="userSpaceOnUse" gradientTransform="matrix(132.718,143.195,-21.332,19.771,561.359,547.948)">
			<stop offset="0" stop-color="#01d7fe"/>
			<stop offset="1" stop-color="#01a8f9"/>
		</linearGradient>
		<linearGradient id="g6" x2="1" gradientUnits="userSpaceOnUse" gradientTransform="matrix(193.256,-158.33,13.127,16.022,252.917,739.09)">
			<stop offset="0" stop-color="#01a8f9"/>
			<stop offset="1" stop-color="#01d7fe"/>
		</linearGradient>
		<linearGradient id="g7" x2="1" gradientUnits="userSpaceOnUse" gradientTransform="matrix(253.018,-447.825,137.205,77.52,303.231,434.05)">
			<stop offset="0" stop-color="#633bfe"/>
			<stop offset=".27" stop-color="#a847fb"/>
			<stop offset=".65" stop-color="#f37bf3"/>
			<stop offset="1" stop-color="#fef5fe"/>
		</linearGradient>
		<linearGradient id="g8" x2="1" gradientUnits="userSpaceOnUse" gradientTransform="matrix(242.152,-122.628,56.781,112.125,284.083,189.107)">
			<stop offset="0" stop-color="#633bfe"/>
			<stop offset=".27" stop-color="#a847fb"/>
			<stop offset=".65" stop-color="#f37bf3"/>
			<stop offset="1" stop-color="#fef5fe"/>
		</linearGradient>
		<linearGradient id="g9" x2="1" gradientUnits="userSpaceOnUse" gradientTransform="matrix(267.764,0,0,33.838,264.989,119.958)">
			<stop offset="0" stop-color="#f37bf3"/>
			<stop offset="1" stop-color="#fef5fe"/>
		</linearGradient>
		<linearGradient id="g10" x2="1" gradientUnits="userSpaceOnUse" gradientTransform="matrix(-1149.057,580.932,-26.462,-52.342,1108.023,-4.799)">
			<stop offset="0" stop-color="#fef5fe"/>
			<stop offset=".35" stop-color="#f37bf3"/>
			<stop offset=".73" stop-color="#a847fb"/>
			<stop offset="1" stop-color="#633bfe"/>
		</linearGradient>
		<linearGradient id="g11" x2="1" gradientUnits="userSpaceOnUse" gradientTransform="matrix(-583.26,435.407,-32.169,-43.093,608.353,360.726)">
			<stop offset="0" stop-color="#9971f1"/>
			<stop offset=".64" stop-color="#3542f9"/>
			<stop offset=".85" stop-color="#0c1675"/>
			<stop offset="1" stop-color="#0c1675"/>
		</linearGradient>
		<linearGradient id="g12" x2="1" gradientUnits="userSpaceOnUse" gradientTransform="matrix(336.063,0,0,210.43,573.5,559.828)">
			<stop offset="0" stop-color="#fcf9fe"/>
			<stop offset=".72" stop-color="#02a1f7"/>
			<stop offset="1" stop-color="#02a1f7"/>
		</linearGradient>
		<linearGradient id="g13" x2="1" gradientUnits="userSpaceOnUse" gradientTransform="matrix(230.51,0,0,23.73,746.964,676.829)">
			<stop offset="0" stop-color="#0297f4"/>
			<stop offset=".03" stop-color="#0297f4"/>
			<stop offset=".28" stop-color="#08f7fc"/>
			<stop offset="1" stop-color="#0282f3"/>
		</linearGradient>
		<linearGradient id="g14" x2="1" gradientUnits="userSpaceOnUse" gradientTransform="matrix(240.599,0,0,186.742,379.468,595.336)">
			<stop offset="0" stop-color="#fcf9fe"/>
			<stop offset=".35" stop-color="#7854fb"/>
			<stop offset=".99" stop-color="#02a1f7"/>
			<stop offset="1" stop-color="#02a1f7"/>
		</linearGradient>
		<linearGradient id="g15" x2="1" gradientUnits="userSpaceOnUse" gradientTransform="matrix(169.333,0,0,131.97,746.829,602.036)">
			<stop offset="0" stop-color="#02a1f7"/>
			<stop offset="1" stop-color="#fcf9fe"/>
		</linearGradient>
		<linearGradient id="g16" x2="1" gradientUnits="userSpaceOnUse" gradientTransform="matrix(1.595,0,0,.059,897.037,751.056)">
			<stop offset="0" stop-color="#02a1f7"/>
			<stop offset="1" stop-color="#fcf9fe"/>
		</linearGradient>
		<linearGradient id="g17" x2="1" gradientUnits="userSpaceOnUse" gradientTransform="matrix(0,118.219,-167.014,0,2988.668,354.756)">
			<stop offset="0" stop-color="#9aebfd"/>
			<stop offset="1" stop-color="#5931ef"/>
		</linearGradient>
		<linearGradient id="g18" x2="1" gradientUnits="userSpaceOnUse" gradientTransform="matrix(0,118.219,-154.308,0,2988.668,354.756)">
			<stop offset="0" stop-color="#9aebfd"/>
			<stop offset="1" stop-color="#5931ef"/>
		</linearGradient>
		<linearGradient id="g19" x2="1" gradientUnits="userSpaceOnUse" gradientTransform="matrix(0,118.219,-178.349,0,2988.668,354.756)">
			<stop offset="0" stop-color="#9aebfd"/>
			<stop offset="1" stop-color="#5931ef"/>
		</linearGradient>
	</defs>
	<style>
		.s0 { fill: none } 
		.s1 { fill: url(#g1) } 
		.s2 { fill: url(#g2) } 
		.s3 { fill: url(#g3) } 
		.s4 { fill: url(#g4) } 
		.s5 { fill: url(#g5) } 
		.s6 { fill: url(#g6) } 
		.s7 { fill: url(#g7) } 
		.s8 { fill: url(#g8) } 
		.s9 { fill: url(#g9) } 
		.s10 { fill: url(#g10) } 
		.s11 { fill: url(#g11) } 
		.s12 { fill: url(#g12) } 
		.s13 { fill: url(#g13) } 
		.s14 { fill: url(#g14) } 
		.s15 { fill: url(#g15) } 
		.s16 { fill: url(#g16) } 
		.s17 { fill: #fefefe } 
		.s18 { fill: url(#g17) } 
		.s19 { fill: url(#g18) } 
		.s20 { fill: url(#g19) } 
	</style>
	<g>
		<g id="brancotransp">
			<path fill-rule="evenodd" class="s0" d="m-346-1686h4166.67v4166.67h-4166.67z"/>
			<g id="Layer-1">
				<g>
					<g>
						<g>
							<path class="s1" d="m1130.35 1.01c-24.92 9.08-555.95 213.2-692.04 331.13l94.03-229.08-267.5 23.37 58.13 45.59 0.33 14.71 140.56-52.26-152.36 90.98-88.34 307.32c234.56-195.46 557.58-367.21 907.19-531.76z"/>
						</g>
						<g>
							<path class="s2" d="m249.14 558.11c-167.38 134.14-248.62 232.31-248.62 232.31l132.18-0.35c144.06-134.73 529.39-426.25 892.48-703.92-375.68 158.8-643.14 364.98-776.04 471.96z"/>
						</g>
						<g>
							<path class="s3" d="m838.53 199.68l-702.04 531.99-10.9 33.63 8.17 24.59c142.55-134.61 528.08-427.01 891.48-704.5z"/>
						</g>
						<g>
							<path class="s4" d="m522.15 510.59l224.72 178.15 230.63 0.02-330.59-267.88z"/>
						</g>
						<g>
							<path class="s5" d="m672.34 688.66l44.35-0.11-194.41-155.76z"/>
						</g>
						<g>
							<path class="s6" d="m160.68 793.66l191.81-115.16 115.81-127.5z"/>
						</g>
						<g>
							<path class="s7" d="m349.22 229.87l-75.06 243.83 132.41-99.7 84.48-230.71z"/>
						</g>
						<g>
							<path class="s8" d="m314.53 137.48l33.74 22.17 119.91-27.57z"/>
						</g>
						<g>
							<path class="s9" d="m264.91 126.36l42.64 10.51 160.59-4.79 64.52-29.04z"/>
						</g>
						<g>
							<path class="s10" d="m438.38 331.73l-5.37 24.41c143.08-110.92 592.46-310.92 697.78-354.78-24.91 9.19-557.31 212.8-692.41 330.37z"/>
						</g>
						<g>
							<path class="s11" d="m55.62 765.24l70.17 0.31c265.17-232.47 712.38-565.41 712.38-565.41-367.51 170.81-720.84 505.41-782.55 565.1z"/>
						</g>
						<g>
							<path class="s12" d="m573.5 502.11l189.25 162.89 146.79-0.03-264.54-210.39z"/>
						</g>
						<g>
							<path class="s13" d="m762.91 665.07l-15.94 23.72 230.54-0.01-67.94-23.72z"/>
						</g>
						<g>
							<path class="s14" d="m522.38 510.49l224.74 178.16 15.75-23.74-189.24-162.92z"/>
						</g>
						<g>
							<path class="s15" d="m826.42 604.24l76.87 58.58c-22.35 0.17-44.7 0.17-67.05 0.68-24.56 0.17-48.94 0.68-73.32 1.53 24.38 0.67 48.76 1.18 73.32 1.52 24.38 0.51 48.93 0.51 73.32 0.51l6.09 0.17-4.74-3.9c-26.92-21.5-54.86-41.48-82.29-62.14-27.43-20.32-54.53-41.49-80.27-64.35 24.22 24.55 50.97 46.4 78.07 67.4z"/>
						</g>
						<g>
							<path class="s16" d="m897.04 751.06c0.02 0.01 0.17 0.02 0.8 0.03 0.62-0.01 0.77-0.02 0.79-0.03-0.02-0.01-0.16-0.02-0.79-0.03-0.64 0.01-0.78 0.02-0.8 0.03z"/>
						</g>
					</g>
					<g>
						<g>
							<path class="s17" d="m1067.71 297.92c5.64 0 8.26 2.14 8.26 6.71v79.53h52.18c25.53 0 31.91-1.83 41.67-12.19l65.32-70.08c2.63-3.05 4.51-3.97 10.89-3.97h46.92c5.63 0 7.51 4.27 4.5 7.32l-72.82 76.48c-8.26 8.84-15.39 15.54-22.53 20.42 10.14 5.18 19.15 12.19 28.54 21.94l76.95 79.22c3.01 2.44 1.5 7.92-4.88 7.92h-47.67c-6.01 0-8.26-0.91-10.89-3.96l-69.45-72.22c-9.76-10.36-17.27-12.49-41.67-12.49h-57.06v81.97c0 4.57-2.62 6.7-8.26 6.7h-40.54c-5.63 0-8.26-2.13-8.26-6.7v-199.89c0-4.57 2.63-6.71 8.26-6.71z"/>
						</g>
						<g>
							<path class="s17" d="m1545.95 297.92c76.2 0 105.11 21.95 105.11 80.45v52.41c0 58.51-28.91 80.44-105.11 80.44h-115.63c-76.2 0-105.11-22.24-105.11-80.44v-52.41c0-58.2 28.91-80.45 105.11-80.45zm-163.67 129.51c0 31.99 10.88 40.83 49.93 40.83h111.49c39.04 0 49.93-8.84 49.93-40.83v-45.71c0-31.99-10.89-40.83-49.93-40.83h-111.49c-39.05 0-49.93 8.84-49.93 40.83z"/>
						</g>
						<g>
							<path class="s17" d="m1976.12 297.92c5.64 0 8.64 2.14 8.64 6.71v29.86c0 4.57-3 6.71-8.64 6.71h-118.25v163.32c0 4.57-2.25 6.7-7.88 6.7h-40.92c-5.26 0-8.26-2.13-8.26-6.7v-163.32h-118.25c-5.25 0-8.26-2.14-8.26-6.71v-29.86c0-4.57 3.01-6.71 8.26-6.71z"/>
						</g>
						<g>
							<path class="s17" d="m2136.03 297.92c19.51 0 30.78 4.58 43.16 23.16l124.26 183.14c2.63 4.26 1.5 7.01-4.5 7.01h-47.68c-4.88 0-7.13-0.92-8.63-3.66l-24.78-37.18h-179.82l-24.39 37.18c-1.88 2.74-3.76 3.66-8.64 3.66h-49.18c-6 0-7.13-2.75-4.5-7.01l123.13-183.14c12.01-18.58 23.65-23.16 39.42-23.16zm55.18 132.86l-58.19-87.45c-1.12-1.53-2.63-2.14-4.5-2.14h-2.25c-1.88 0-3 0.61-4.13 2.14l-57.81 87.45z"/>
						</g>
						<g>
							<path class="s17" d="m2384.51 297.92c5.63 0 8.26 2.14 8.26 6.71v199.89c0 4.57-2.63 6.7-8.26 6.7h-40.54c-5.64 0-8.26-2.13-8.26-6.7v-199.89c0-4.57 2.62-6.71 8.26-6.71z"/>
						</g>
						<g>
							<path class="s17" d="m2689.96 297.93c81.46 0 114.87 26.5 114.87 85.92v41.44c0 59.43-33.41 85.93-114.87 85.93h-175.31q-11.26 0-11.26-9.13v-195.02q0-9.14 11.26-9.14zm-129.51 166.37c0 2.74 1.5 3.96 4.88 3.96h123.13c44.3 0 59.31-10.97 59.31-46.93v-33.51c0-35.96-15.01-46.93-59.31-46.93h-123.13c-3.38 0-4.88 1.22-4.88 3.96z"/>
						</g>
						<g>
							<path class="s17" d="m3119.02 297.92c5.25 0 8.25 2.14 8.25 6.71v29.56c0 4.26-3 6.7-8.25 6.7h-164.8c-38.67 0-48.81 8.84-48.81 40.83v1.52h211.35c5.26 0 8.26 2.14 8.26 6.71v27.12c0 4.57-3 6.7-8.26 6.7h-211.35v3.66c0 31.99 10.14 40.83 48.81 40.83h164.8c5.25 0 8.25 2.44 8.25 6.7v29.56c0 4.57-3 6.7-8.25 6.7h-165.18c-76.2 0-105.11-22.24-105.11-80.44v-52.41c0-58.2 28.91-80.45 105.11-80.45z"/>
						</g>
						<g>
							<path class="s17" d="m3462.86 297.92c6.75 0 7.13 5.19 3.75 7.93l-114.13 95.37 119.38 102.08c3.38 2.74 3.01 7.92-3.75 7.92h-54.43c-6.01 0-9.01-1.52-12.39-4.26l-89.35-76.79-89.72 76.79c-3.38 2.74-6 4.26-12.01 4.26h-52.56c-6.75 0-6.75-5.18-3.37-7.92l122.38-103.3-110.37-94.15c-3.38-2.74-3.01-7.93 3.75-7.93h54.81c6.01 0 9.01 1.53 12.01 4.27l80.34 68.87 81.46-68.87c3-2.74 6.01-4.27 12.01-4.27z"/>
						</g>
						<g>
							<path class="s18" d="m2514.62 297.89c-7.45 0-11.23 3.08-11.23 9.22v194.95c0 6.15 3.78 9.22 11.23 9.22h175.32c81.45 0 114.91-26.6 114.91-85.95v-41.49c0-59.35-33.46-85.95-114.91-85.95zm45.87 166.46v-119.52c0-2.72 1.41-3.91 4.84-3.91h123.19c44.21 0 59.22 11 59.22 46.94v33.45c0 35.94-15.01 46.94-59.22 46.94h-123.19c-3.43 0-4.84-1.19-4.84-3.9z"/>
						</g>
						<g>
							<path class="s19" d="m2953.88 297.89c-76.25 0-105.1 22.23-105.1 80.51v52.37c0 58.17 28.85 80.51 105.1 80.51h165.15c5.2 0 8.28-2.13 8.28-6.74v-29.55c0-4.26-3.08-6.74-8.28-6.74h-164.8c-38.66 0-48.82-8.87-48.82-40.79v-3.66h211.37c5.21 0 8.28-2.13 8.28-6.74v-27.07c0-4.61-3.07-6.74-8.28-6.74h-211.37v-1.54c0-32.04 10.16-40.79 48.82-40.79h164.8c5.2 0 8.28-2.48 8.28-6.73v-29.56c0-4.61-3.08-6.74-8.28-6.74z"/>
						</g>
						<g>
							<path class="s20" d="m3410.73 297.89c-6.03 0-9.11 1.54-12.06 4.26l-81.46 68.92-80.39-68.92c-2.95-2.72-5.91-4.26-11.94-4.26h-54.85c-6.74 0-7.09 5.2-3.78 7.92l110.41 94.22-122.35 103.33c-3.43 2.72-3.43 7.92 3.31 7.92h52.6c6.03 0 8.63-1.54 11.95-4.38l89.72-76.72 89.38 76.72c3.43 2.84 6.38 4.38 12.41 4.38h54.38c6.86 0 7.21-5.2 3.78-7.92l-119.4-102.14 114.2-95.41c3.31-2.72 2.96-7.92-3.78-7.92z"/>
						</g>
					</g>
				</g>
			</g>
		</g>
	</g>
</svg>